<?xml version="1.0" encoding="UTF-8"?>
<!DOCTYPE svg PUBLIC "-//W3C//DTD SVG 1.1//EN" "http://www.w3.org/Graphics/SVG/1.1/DTD/svg11.dtd">
<!-- Creator: CorelDRAW (Evaluation Version) -->
<svg xmlns="http://www.w3.org/2000/svg" xml:space="preserve" width="24in" height="11.3in" version="1.1" style="shape-rendering:geometricPrecision; text-rendering:geometricPrecision; image-rendering:optimizeQuality; fill-rule:evenodd; clip-rule:evenodd"
viewBox="0 0 24000 11300"
 xmlns:xlink="http://www.w3.org/1999/xlink"
 xmlns:xodm="http://www.corel.com/coreldraw/odm/2003">
 <defs>
  <style type="text/css">
   <![CDATA[
    .fil7 {fill:#373535;fill-rule:nonzero}
    .fil1 {fill:#F79634;fill-rule:nonzero}
    .fil4 {fill:#F47F35;fill-rule:nonzero}
    .fil5 {fill:#E23539;fill-rule:nonzero}
    .fil2 {fill:#4BB855;fill-rule:nonzero}
    .fil6 {fill:#19AA93;fill-rule:nonzero}
    .fil3 {fill:#319B52;fill-rule:nonzero}
    .fil0 {fill:url(#id0);fill-rule:nonzero}
   ]]>
  </style>
  <linearGradient id="id0" gradientUnits="userSpaceOnUse" x1="11617.4" y1="5194.5" x2="11529.09" y2="7593.07">
   <stop offset="0" style="stop-opacity:1; stop-color:#186291"/>
   <stop offset="0.658824" style="stop-opacity:1; stop-color:#1F4D71"/>
   <stop offset="1" style="stop-opacity:1; stop-color:#273750"/>
  </linearGradient>
 </defs>
 <g id="Layer_x0020_1">
  <metadata id="CorelCorpID_0Corel-Layer"/>
  <path class="fil0" d="M4989.3 5232.1l248.36 0 566.2 653.28 0 -502.37c0,-53.59 -6.5,-87.06 -19.28,-100.39 -16.96,-17.93 -43.91,-26.9 -80.62,-26.9l-32.52 0 0 -23.62 324.8 0 0 23.62 -33 0c-39.72,0 -67.61,11.15 -84.34,33.46 -9.98,13.79 -15.11,45.06 -15.11,93.83l0 733.11 -24.62 0 -608.26 -700.75 0 535.84c0,53.59 6.28,87.04 18.59,100.39 17.43,17.94 44.37,26.91 80.86,26.91l32.98 0 0 23.62 -324.8 0 0 -23.62 32.53 0c39.96,0 68.07,-11.16 84.8,-33.46 9.98,-13.78 15.1,-45.05 15.1,-93.83l0 -604.95c-26.71,-29.52 -47.16,-48.99 -60.87,-58.39 -13.94,-9.41 -34.16,-18.15 -60.87,-26.47 -13.25,-3.72 -33.23,-5.68 -59.94,-5.68l0 -23.62zm1456.02 846.4l0 23.62 -395.89 0 0 -23.62 32.76 0c38.33,0 65.98,-10.5 83.41,-31.27 10.92,-13.79 16.26,-46.58 16.26,-98.63l0 -562.97c0,-43.96 -3.02,-73.04 -8.82,-87.04 -4.65,-10.71 -13.95,-19.9 -28.12,-27.56 -19.98,-10.28 -40.89,-15.3 -62.72,-15.3l-32.76 0 0 -23.62 395.89 0 0 23.62 -33.22 0c-37.63,0 -65.05,10.49 -82.24,31.27 -11.38,13.78 -16.97,46.59 -16.97,98.64l0 562.97c0,43.95 3.03,73.04 8.84,87.04 4.41,10.71 13.94,19.9 28.57,27.55 19.52,10.28 39.96,15.31 61.8,15.31l33.22 0zm976.26 23.62l-247.43 0 -313.88 -406.8c-22.54,0.87 -40.89,1.31 -55.06,1.31 -5.81,0 -12.09,-0.22 -18.6,-0.44 -6.73,-0.21 -13.48,-0.43 -20.67,-0.87l0 253.27c0,54.67 6.27,88.57 19.04,101.7 17.19,18.81 42.98,28.21 77.37,28.21l36.01 0 0 23.62 -395.9 0 0 -23.62 34.61 0c39.04,0 66.91,-12.03 83.64,-35.87 9.54,-13.12 14.17,-44.61 14.17,-94.04l0 -562.97c0,-54.68 -6.27,-88.58 -19.04,-101.7 -17.67,-18.81 -43.92,-28.21 -78.77,-28.21l-34.61 0 0 -23.62 336.42 0c98.27,0 170.53,6.78 217,20.11 46.7,13.57 86.2,38.5 118.49,74.58 32.52,36.09 48.79,79.18 48.79,129.26 0,53.57 -18.59,99.95 -55.54,139.32 -37.17,39.37 -94.32,67.14 -172.15,83.55l191.22 249.1c43.68,57.31 81.07,95.59 112.44,114.39 31.13,19.02 72.02,30.84 122.43,36.08l0 23.62zm-655.63 -447.48c8.59,0 16.03,0 22.3,0.22 6.27,0.21 11.38,0.43 15.33,0.43 87.13,0 152.87,-17.94 197.02,-53.8 44.37,-36.09 66.45,-81.8 66.45,-137.35 0,-54.24 -17.9,-98.43 -53.44,-132.55 -35.79,-33.9 -83.18,-50.95 -141.96,-50.95 -26.01,0 -61.33,3.93 -105.7,11.8l0 362.19zm1520.15 -422.54l0 23.62c-32.54,5.68 -57.39,15.52 -74.12,29.75 -23.93,20.99 -45.31,53.35 -63.89,96.89l-320.85 739.44 -25.09 0 -345.48 -749.29c-17.89,-38.71 -30.2,-62.33 -37.65,-70.86 -11.14,-13.34 -25.09,-23.84 -41.82,-31.5 -16.49,-7.44 -38.79,-12.25 -66.91,-14.43l0 -23.62 376.85 0 0 23.62c-42.76,3.93 -70.4,10.72 -83.18,20.56 -12.78,9.85 -19.05,22.31 -19.05,37.83 0,21.22 10.44,54.68 31.36,99.95l234.89 509.37 218.15 -503.03c21.38,-49.65 32.07,-83.99 32.07,-103.24 0,-12.25 -6.74,-24.28 -19.76,-35.43 -13.24,-11.37 -35.54,-19.47 -66.91,-24.07 -2.08,-0.43 -6.03,-1.09 -11.38,-1.96l0 -23.62 282.76 0zm476.73 580.02l-358.02 0 -61.8 136.26c-15.33,33.68 -23.23,59.05 -23.23,75.67 0,13.12 6.73,24.93 20.2,34.99 13.25,9.84 42.29,16.4 86.67,19.46l0 23.62 -291.35 0 0 -23.62c38.57,-6.35 63.42,-14.65 74.8,-24.93 23.24,-20.56 48.8,-62.33 76.91,-125.1l325.04 -716.06 23 0 321.31 723.71c25.79,58.18 49.26,95.8 70.41,113.3 21.14,17.28 50.41,26.91 88.29,29.09l0 23.62 -364.3 0 0 -23.62c36.71,-1.75 61.56,-7.44 74.57,-17.27 13.02,-9.85 19.28,-21.87 19.28,-36.09 0,-18.81 -9.06,-48.56 -27.19,-89.24l-54.6 -123.78zm-20.9 -47.24l-155.66 -351.03 -159.85 351.03 315.51 0zm370.33 -532.78l248.37 0 566.2 653.28 0 -502.37c0,-53.59 -6.51,-87.06 -19.28,-100.39 -16.97,-17.93 -43.92,-26.9 -80.63,-26.9l-32.52 0 0 -23.62 324.8 0 0 23.62 -33 0c-39.72,0 -67.61,11.15 -84.34,33.46 -9.98,13.79 -15.11,45.06 -15.11,93.83l0 733.11 -24.62 0 -608.25 -700.75 0 535.84c0,53.59 6.28,87.04 18.58,100.39 17.43,17.94 44.38,26.91 80.86,26.91l32.98 0 0 23.62 -324.8 0 0 -23.62 32.54 0c39.96,0 68.07,-11.16 84.8,-33.46 9.98,-13.78 15.09,-45.05 15.09,-93.83l0 -604.95c-26.71,-29.52 -47.15,-48.99 -60.87,-58.39 -13.94,-9.41 -34.15,-18.15 -60.87,-26.47 -13.25,-3.72 -33.23,-5.68 -59.94,-5.68l0 -23.62zm1663.96 580.02l-358.02 0 -61.8 136.26c-15.33,33.68 -23.24,59.05 -23.24,75.67 0,13.12 6.73,24.93 20.21,34.99 13.25,9.84 42.29,16.4 86.67,19.46l0 23.62 -291.35 0 0 -23.62c38.57,-6.35 63.42,-14.65 74.8,-24.93 23.24,-20.56 48.8,-62.33 76.91,-125.1l325.04 -716.06 23 0 321.31 723.71c25.79,58.18 49.26,95.8 70.4,113.3 21.14,17.28 50.41,26.91 88.29,29.09l0 23.62 -364.3 0 0 -23.62c36.71,-1.75 61.57,-7.44 74.58,-17.27 13.02,-9.85 19.28,-21.87 19.28,-36.09 0,-18.81 -9.06,-48.56 -27.19,-89.24l-54.6 -123.78zm-20.9 -47.24l-155.66 -351.03 -159.85 351.03 315.52 0zm1304.09 -107.17c63.88,12.91 111.75,33.24 143.57,61.67 43.91,39.37 65.99,87.49 65.99,144.35 0,43.3 -14.63,84.86 -43.68,124.44 -29.04,39.59 -68.77,68.46 -119.19,86.61 -50.65,18.15 -127.78,27.34 -231.64,27.34l-434.93 0 0 -23.62 34.39 0c38.33,0 65.74,-11.59 82.47,-34.56 10.23,-14.87 15.57,-46.81 15.57,-95.35l0 -562.97c0,-53.8 -6.73,-87.7 -19.74,-101.7 -17.43,-18.81 -43.68,-28.21 -78.29,-28.21l-34.39 0 0 -23.62 397.98 0c74.35,0 134.06,5.02 178.9,15.3 67.85,15.54 119.65,42.65 155.44,81.8 36.01,39.16 53.9,83.99 53.9,134.95 0,43.52 -14.17,82.44 -42.28,117 -27.89,34.35 -69.47,59.93 -124.06,76.56zm-356.4 -35.65c16.72,3.06 35.77,5.25 57.37,6.78 21.61,1.52 45.31,2.18 71.1,2.18 66.21,0 115.93,-6.78 149.39,-20.12 33.22,-13.34 58.77,-33.9 76.2,-61.67 17.66,-27.55 26.49,-57.74 26.49,-90.54 0,-50.75 -22.08,-93.83 -65.98,-129.7 -43.91,-35.65 -108.03,-53.59 -192.37,-53.59 -45.31,0 -85.97,4.6 -122.2,14l0 332.66zm0 416.85c52.74,11.59 104.78,17.28 156.36,17.28 82.47,0 145.2,-17.49 188.42,-52.28 43.2,-34.77 65.04,-77.85 65.04,-129.04 0,-33.68 -10.22,-66.26 -30.2,-97.32 -19.97,-31.27 -52.04,-55.77 -96.18,-73.7 -43.91,-17.94 -98.27,-26.91 -163.09,-26.91 -28.12,0 -52.28,0.43 -72.26,1.31 -19.74,0.87 -36.01,2.41 -48.09,4.37l0 356.27zm1308.96 -783.19l0 -23.62 324.8 0 0 23.62 -34.61 0c-36.25,0 -64.12,14.21 -83.64,42.87 -9.52,13.34 -14.17,43.96 -14.17,92.3l0 352.55c0,87.27 -9.06,154.85 -27.41,202.96 -18.36,48.12 -54.6,89.45 -108.27,123.8 -53.68,34.33 -126.62,51.61 -219.09,51.61 -100.6,0 -177.04,-16.39 -229.08,-49.43 -52.28,-32.81 -89.22,-77.2 -110.83,-132.76 -14.63,-38.05 -21.84,-109.35 -21.84,-214.11l0 -339.88c0,-53.37 -7.91,-88.36 -23.47,-104.97 -15.56,-16.63 -40.89,-24.94 -75.74,-24.94l-34.62 0 0 -23.62 398.68 0 0 23.62 -35.31 0c-38.11,0 -65.28,11.37 -81.55,33.9 -11.38,15.3 -16.96,47.45 -16.96,96.01l0 379.02c0,33.69 3.25,72.4 9.76,116.15 6.74,43.52 18.59,77.42 35.78,101.91 17.43,24.28 42.29,44.4 74.59,60.37 32.52,15.75 72.24,23.62 119.41,23.62 60.41,0 114.54,-12.47 162.17,-37.19 47.63,-24.71 80.15,-56.65 97.57,-95.14 17.43,-38.71 26.25,-104.33 26.25,-196.61l0 -352.13c0,-54.24 -6.27,-88.13 -19.05,-101.7 -17.66,-18.81 -43.91,-28.21 -78.76,-28.21l-34.62 0zm771.11 822.78l0 23.62 -395.89 0 0 -23.62 32.76 0c38.33,0 65.98,-10.5 83.4,-31.27 10.92,-13.79 16.27,-46.58 16.27,-98.63l0 -562.97c0,-43.96 -3.02,-73.04 -8.82,-87.04 -4.65,-10.71 -13.95,-19.9 -28.12,-27.56 -19.98,-10.28 -40.89,-15.3 -62.72,-15.3l-32.76 0 0 -23.62 395.89 0 0 23.62 -33.22 0c-37.63,0 -65.06,10.49 -82.24,31.27 -11.38,13.78 -16.96,46.59 -16.96,98.64l0 562.97c0,43.95 3.03,73.04 8.84,87.04 4.41,10.71 13.94,19.9 28.57,27.55 19.52,10.28 39.96,15.31 61.8,15.31l33.22 0zm833.61 -216.52l22.3 4.59 -79.45 235.55 -715.12 0 0 -23.62 34.62 0c39.03,0 66.91,-11.8 83.64,-35.65 9.52,-13.57 14.17,-45.06 14.17,-94.26l0 -562.97c0,-54.24 -6.27,-88.13 -19.06,-101.7 -17.65,-18.81 -43.9,-28.21 -78.75,-28.21l-34.62 0 0 -23.62 418.2 0 0 23.62c-49.02,-0.44 -83.42,3.72 -103.4,12.69 -19.74,8.74 -33.22,20.13 -40.43,33.47 -7.2,13.55 -10.92,45.93 -10.92,96.89l0 548.52c0,35.65 3.71,59.93 10.92,73.27 5.35,9.19 13.94,15.75 25.33,20.11 11.14,4.17 46.69,6.35 106.4,6.35l67.39 0c71.09,0 120.81,-4.81 149.38,-14.66 28.58,-9.85 54.83,-27.34 78.53,-52.26 23.47,-24.93 47.17,-64.3 70.86,-118.1zm75.04 240.14l0 -23.62 34.61 0c39.04,0 66.69,-11.8 82.94,-35.21 10,-14 14.87,-45.7 14.87,-94.69l0 -562.97c0,-54.24 -6.27,-88.13 -19.05,-101.7 -17.66,-18.81 -43.91,-28.21 -78.77,-28.21l-34.61 0 0 -23.62 375.68 0c138.02,0 243.02,14.65 314.82,44.18 72.02,29.52 129.87,78.74 173.55,147.63 43.91,68.89 65.75,148.51 65.75,238.61 0,121.17 -39.04,222.21 -117.09,303.57 -87.59,90.76 -220.95,136.03 -400.31,136.03l-412.39 0zm263.47 -63.87c57.61,12.04 105.7,17.94 144.74,17.94 105,0 192.13,-34.78 261.6,-104.55 69.23,-69.55 103.85,-164.03 103.85,-283.22 0,-120.07 -34.62,-214.77 -103.85,-283.88 -69.47,-69.34 -158.46,-103.88 -267.19,-103.88 -40.66,0 -87.11,6.11 -139.16,18.59l0 739.01zm1010.87 -758.91l0 343.81 203.53 0c52.74,0 87.81,-7.44 105.48,-22.31 23.7,-19.69 36.71,-54.25 39.49,-103.67l25.09 0 0 303.13 -25.09 0c-6.27,-42.43 -12.78,-69.76 -19.05,-81.8 -8.13,-14.87 -21.6,-26.67 -40.2,-35.2 -18.59,-8.53 -47.15,-12.91 -85.72,-12.91l-203.53 0 0 286.94c0,38.5 1.85,61.9 5.35,70.2 3.71,8.31 9.98,15.09 19.05,19.9 9.06,5.04 26.49,7.44 51.81,7.44l156.36 0c52.04,0 89.91,-3.5 113.61,-10.28 23.46,-6.78 46.23,-20.33 67.83,-40.46 28.12,-26.46 56.93,-66.48 86.43,-119.85l27.89 0 -79.69 217.83 -712.1 0 0 -23.62 32.76 0c21.84,0 42.52,-5.03 62.03,-14.87 14.65,-6.78 24.63,-17.06 29.74,-30.85 5.35,-13.78 7.91,-41.77 7.91,-84.19l0 -565.59c0,-55.11 -5.81,-89.01 -17.67,-101.71 -16.49,-17.05 -43.68,-25.58 -82.01,-25.58l-32.76 0 0 -23.62 712.32 0 9.76 191.58 -26.49 0c-9.52,-46.14 -19.98,-77.86 -31.6,-95.14 -11.6,-17.27 -28.81,-30.39 -51.34,-39.58 -18.13,-6.35 -50.19,-9.62 -95.96,-9.62l-253.24 0zm1502.95 822.78l-247.43 0 -313.88 -406.8c-22.54,0.87 -40.89,1.31 -55.06,1.31 -5.81,0 -12.09,-0.22 -18.6,-0.44 -6.73,-0.21 -13.48,-0.43 -20.67,-0.87l0 253.27c0,54.67 6.27,88.57 19.05,101.7 17.19,18.81 42.98,28.21 77.37,28.21l36.01 0 0 23.62 -395.9 0 0 -23.62 34.61 0c39.04,0 66.91,-12.03 83.64,-35.87 9.54,-13.12 14.17,-44.61 14.17,-94.04l0 -562.97c0,-54.68 -6.27,-88.58 -19.04,-101.7 -17.67,-18.81 -43.92,-28.21 -78.77,-28.21l-34.61 0 0 -23.62 336.42 0c98.27,0 170.53,6.78 217,20.11 46.7,13.57 86.2,38.5 118.5,74.58 32.52,36.09 48.79,79.18 48.79,129.26 0,53.57 -18.59,99.95 -55.53,139.32 -37.17,39.37 -94.32,67.14 -172.15,83.55l191.21 249.1c43.68,57.31 81.07,95.59 112.44,114.39 31.13,19.02 72.02,30.84 122.43,36.08l0 23.62zm-655.63 -447.48c8.59,0 16.03,0 22.3,0.22 6.27,0.21 11.38,0.43 15.33,0.43 87.13,0 152.87,-17.94 197.02,-53.8 44.37,-36.09 66.45,-81.8 66.45,-137.35 0,-54.24 -17.9,-98.43 -53.44,-132.55 -35.79,-33.9 -83.18,-50.95 -141.96,-50.95 -26.01,0 -61.33,3.93 -105.7,11.8l0 362.19zm1282.47 -442.24l0 300.51 -25.09 0c-8.13,-57.74 -22.76,-103.67 -43.9,-137.78 -21.15,-34.13 -51.35,-61.24 -90.62,-81.37 -39.03,-20.13 -79.45,-30.18 -121.27,-30.18 -47.39,0 -86.43,13.56 -117.33,40.69 -30.9,27.11 -46.46,58.17 -46.46,92.72 0,26.47 9.75,50.75 29.27,72.61 28.35,31.94 95.26,74.81 201.2,128.17 86.43,43.74 145.44,77.2 177.04,100.39 31.6,23.4 55.99,50.74 72.96,82.45 16.95,31.72 25.55,64.74 25.55,99.52 0,65.83 -27.19,122.47 -81.32,170.15 -54.36,47.68 -124.29,71.51 -209.56,71.51 -26.95,0 -52.04,-1.96 -75.74,-5.9 -14.17,-2.18 -43.22,-10.06 -87.59,-23.62 -44.14,-13.55 -72.26,-20.33 -84.1,-20.33 -11.38,0 -20.44,3.28 -26.95,9.62 -6.51,6.56 -11.39,19.9 -14.65,40.24l-25.09 0 0 -297.88 25.09 0c11.85,62.33 27.65,109.14 47.63,139.98 19.98,31.06 50.66,56.86 91.78,77.21 41.12,20.56 86.2,30.83 135.22,30.83 56.68,0 101.75,-14.22 134.51,-42.43 33,-28.43 49.5,-61.9 49.5,-100.39 0,-21.44 -6.28,-43.09 -18.6,-64.96 -12.54,-21.87 -31.82,-42.2 -58.07,-61.24 -17.66,-12.91 -66.21,-40.02 -145.44,-81.57 -79.23,-41.34 -135.68,-74.58 -169.14,-99.3 -33.46,-24.71 -59.02,-52.28 -76.21,-82.02 -17.43,-29.96 -26.02,-62.99 -26.02,-98.86 0,-62.33 25.56,-116.13 76.44,-161.18 50.88,-45.06 115.94,-67.59 194.46,-67.59 49.25,0 101.29,11.37 156.35,33.9 25.57,10.72 43.46,15.97 53.91,15.97 11.84,0 21.6,-3.28 29.04,-9.84 7.43,-6.78 13.48,-19.9 18.11,-40.03l25.09 0zm-10934.48 1782.7l285.77 0 0 24.93c-39.5,3.06 -68.77,11.16 -87.59,24.5 -18.82,13.34 -48.09,54.01 -88.05,121.6 -40.2,67.58 -85.04,130.79 -134.98,189.4 40.19,44.4 76.44,75.46 108.04,93.17 31.82,17.72 63.88,26.68 95.95,26.68 31.36,0 57.85,-8.08 79.69,-24.06 21.84,-15.97 37.17,-39.59 46.23,-70.86l25.33 17.5c-16.96,60.15 -43.91,104.76 -81.09,133.85 -37.18,28.87 -80.62,43.3 -129.88,43.3 -37.17,0 -75.04,-9.62 -113.37,-28.64 -38.34,-19.24 -80.16,-51.62 -125.46,-97.32 -56.45,47.45 -107.11,80.26 -152.19,98.41 -45.3,18.37 -93.39,27.55 -144.74,27.55 -75.04,0 -134.52,-18.8 -178.42,-56.42 -44.15,-37.62 -65.99,-82.68 -65.99,-134.94 0,-51.62 19.76,-103.24 59.25,-154.85 39.72,-51.62 114.3,-104.98 223.73,-160.09 -21.6,-44.4 -36.47,-80.93 -44.14,-109.36 -7.9,-28.43 -11.62,-55.55 -11.62,-81.57 0,-73.04 28.58,-128.81 85.74,-167.31 44.6,-29.96 95.02,-44.84 151.95,-44.84 53.9,0 98.04,15.09 132.19,45.06 33.92,30.18 51.12,67.15 51.12,111.1 0,45.28 -16.5,85.09 -49.48,119.21 -33,34.11 -91.32,71.51 -174.96,112.19 57.86,96.45 117.8,184.81 180.07,265.3 80.15,-89.67 120.11,-165.12 120.11,-226.14 0,-19.47 -6.74,-36.75 -20.44,-52.05 -10,-11.39 -24.17,-18.15 -42.76,-20.35l0 -24.93zm-260.2 16.63c56.22,-25.16 98.27,-53.8 126.16,-85.74 27.87,-31.93 42.04,-67.57 42.04,-106.72 0,-30.84 -10.22,-56.21 -30.2,-76.33 -20.2,-19.9 -45.07,-29.97 -75.04,-29.97 -39.26,0 -69.01,12.91 -89.22,38.71 -19.98,25.81 -29.96,50.96 -29.96,75.9 0,20.78 3.71,44.18 11.38,69.98 7.44,25.81 22.54,63.87 44.85,114.17zm105.48 400.24c-59.72,-76.76 -101.07,-132.97 -124.3,-168.41 -23,-35.43 -48.33,-79.39 -75.74,-131.88 -54.83,29.52 -96.19,62.11 -123.84,97.54 -27.65,35.65 -41.36,74.14 -41.36,115.7 0,45.7 15.57,86.16 46.93,120.72 31.37,34.78 73.65,52.05 126.63,52.05 28.81,0 56.22,-5.47 82.94,-16.18 26.47,-10.94 62.72,-34.12 108.73,-69.55zm899.81 143.47l0 -23.62 34.61 0c39.04,0 66.69,-11.8 82.94,-35.21 10,-14 14.87,-45.7 14.87,-94.69l0 -562.97c0,-54.24 -6.27,-88.13 -19.05,-101.7 -17.67,-18.81 -43.91,-28.21 -78.77,-28.21l-34.61 0 0 -23.62 375.68 0c138.01,0 243.02,14.65 314.81,44.18 72.02,29.52 129.87,78.74 173.55,147.63 43.91,68.89 65.75,148.51 65.75,238.61 0,121.17 -39.04,222.21 -117.09,303.57 -87.59,90.76 -220.96,136.04 -400.31,136.04l-412.39 0zm263.47 -63.87c57.61,12.04 105.7,17.94 144.74,17.94 105,0 192.13,-34.78 261.6,-104.55 69.23,-69.55 103.84,-164.03 103.84,-283.22 0,-120.07 -34.61,-214.77 -103.84,-283.88 -69.47,-69.34 -158.46,-103.88 -267.19,-103.88 -40.66,0 -87.12,6.11 -139.16,18.59l0 739.01zm1010.87 -758.91l0 343.81 203.53 0c52.74,0 87.81,-7.44 105.48,-22.3 23.7,-19.69 36.71,-54.25 39.49,-103.67l25.09 0 0 303.13 -25.09 0c-6.27,-42.43 -12.78,-69.76 -19.04,-81.8 -8.13,-14.87 -21.6,-26.67 -40.2,-35.2 -18.59,-8.53 -47.15,-12.91 -85.72,-12.91l-203.53 0 0 286.94c0,38.5 1.86,61.9 5.35,70.2 3.71,8.31 9.98,15.09 19.04,19.9 9.06,5.04 26.49,7.44 51.82,7.44l156.36 0c52.04,0 89.91,-3.5 113.61,-10.28 23.46,-6.78 46.23,-20.33 67.83,-40.46 28.12,-26.46 56.93,-66.48 86.43,-119.85l27.89 0 -79.69 217.83 -712.1 0 0 -23.62 32.76 0c21.84,0 42.52,-5.03 62.03,-14.87 14.65,-6.78 24.63,-17.06 29.74,-30.85 5.35,-13.78 7.9,-41.77 7.9,-84.19l0 -565.59c0,-55.11 -5.81,-89.01 -17.66,-101.71 -16.49,-17.05 -43.68,-25.58 -82.01,-25.58l-32.76 0 0 -23.62 712.32 0 9.76 191.58 -26.49 0c-9.52,-46.14 -19.98,-77.86 -31.6,-95.14 -11.61,-17.27 -28.81,-30.39 -51.34,-39.58 -18.13,-6.35 -50.19,-9.62 -95.96,-9.62l-253.24 0zm1549.2 -47.24l0 23.62c-32.54,5.68 -57.39,15.52 -74.12,29.75 -23.93,20.99 -45.31,53.35 -63.9,96.89l-320.85 739.45 -25.09 0 -345.48 -749.29c-17.89,-38.71 -30.2,-62.33 -37.65,-70.86 -11.14,-13.34 -25.09,-23.85 -41.82,-31.5 -16.49,-7.44 -38.79,-12.25 -66.91,-14.43l0 -23.62 376.85 0 0 23.62c-42.76,3.93 -70.4,10.71 -83.18,20.56 -12.78,9.85 -19.05,22.31 -19.05,37.83 0,21.22 10.44,54.68 31.36,99.95l234.89 509.37 218.15 -503.03c21.38,-49.65 32.07,-83.99 32.07,-103.24 0,-12.25 -6.74,-24.28 -19.76,-35.43 -13.24,-11.37 -35.54,-19.47 -66.91,-24.07 -2.08,-0.43 -6.03,-1.09 -11.38,-1.96l0 -23.62 282.76 0zm308.99 47.24l0 343.81 203.53 0c52.74,0 87.81,-7.44 105.48,-22.3 23.7,-19.69 36.71,-54.25 39.49,-103.67l25.09 0 0 303.13 -25.09 0c-6.27,-42.43 -12.78,-69.76 -19.05,-81.8 -8.13,-14.87 -21.6,-26.67 -40.2,-35.2 -18.58,-8.53 -47.15,-12.91 -85.72,-12.91l-203.53 0 0 286.94c0,38.5 1.86,61.9 5.35,70.2 3.72,8.31 9.98,15.09 19.05,19.9 9.06,5.04 26.49,7.44 51.82,7.44l156.36 0c52.04,0 89.91,-3.5 113.61,-10.28 23.46,-6.78 46.23,-20.33 67.83,-40.46 28.12,-26.46 56.93,-66.48 86.43,-119.85l27.88 0 -79.69 217.83 -712.1 0 0 -23.62 32.76 0c21.84,0 42.52,-5.03 62.02,-14.87 14.65,-6.78 24.63,-17.06 29.74,-30.85 5.35,-13.78 7.9,-41.77 7.9,-84.19l0 -565.59c0,-55.11 -5.81,-89.01 -17.66,-101.71 -16.49,-17.05 -43.68,-25.58 -82.01,-25.58l-32.76 0 0 -23.62 712.32 0 9.76 191.58 -26.49 0c-9.52,-46.14 -19.98,-77.86 -31.6,-95.14 -11.6,-17.27 -28.8,-30.39 -51.34,-39.58 -18.12,-6.35 -50.18,-9.62 -95.95,-9.62l-253.24 0zm1360.3 582.65l22.3 4.59 -79.45 235.55 -715.11 0 0 -23.62 34.61 0c39.03,0 66.91,-11.8 83.64,-35.65 9.52,-13.57 14.17,-45.06 14.17,-94.26l0 -562.97c0,-54.24 -6.27,-88.13 -19.06,-101.7 -17.65,-18.81 -43.9,-28.21 -78.76,-28.21l-34.61 0 0 -23.62 418.2 0 0 23.62c-49.02,-0.44 -83.42,3.72 -103.4,12.69 -19.74,8.74 -33.22,20.13 -40.43,33.47 -7.2,13.55 -10.92,45.93 -10.92,96.89l0 548.52c0,35.65 3.71,59.93 10.92,73.27 5.35,9.19 13.94,15.75 25.33,20.11 11.14,4.17 46.69,6.35 106.4,6.35l67.39 0c71.09,0 120.81,-4.81 149.38,-14.66 28.58,-9.85 54.83,-27.34 78.53,-52.26 23.47,-24.93 47.17,-64.3 70.86,-118.1zm560.61 -649.58c119.65,0 223.51,42.87 311.1,128.61 87.81,85.73 131.73,192.69 131.73,321.07 0,132.1 -44.14,241.67 -132.67,328.93 -88.29,87.27 -195.39,130.79 -321.09,130.79 -126.86,0 -233.49,-42.64 -319.91,-127.72 -86.43,-85.07 -129.65,-195.08 -129.65,-330.24 0,-138 49.96,-250.64 149.63,-337.91 86.66,-75.67 190.28,-113.52 310.85,-113.52zm-13 45.93c-82.26,0 -148.47,28.88 -198.18,86.61 -62.04,71.96 -93.17,177.16 -93.17,315.82 0,141.93 32.07,251.3 96.43,327.84 49.48,58.18 114.54,87.27 195.61,87.27 86.67,0 158,-31.93 214.45,-95.57 56.45,-63.86 84.57,-164.26 84.57,-301.6 0,-148.94 -31.14,-260.04 -93.18,-333.09 -49.71,-58.18 -118.48,-87.27 -206.53,-87.27zm796.2 435.9l0 254.36c0,54.67 6.51,88.57 19.05,101.7 17.19,18.81 43.22,28.21 78.29,28.21l35.09 0 0 23.62 -395.9 0 0 -23.62 34.85 0c39.26,0 67.15,-12.03 84.1,-35.87 9.06,-13.12 13.48,-44.61 13.48,-94.04l0 -562.97c0,-54.68 -6.03,-88.58 -18.35,-101.7 -17.66,-18.81 -44.14,-28.21 -79.22,-28.21l-34.85 0 0 -23.62 338.75 0c82.7,0 147.76,8.08 195.63,24.06 47.63,15.97 87.81,43.09 120.57,81.14 32.76,38.06 49.02,83.11 49.02,135.17 0,71.07 -24.85,128.82 -74.58,173.22 -49.72,44.39 -119.89,66.71 -210.72,66.71 -22.07,0 -46.24,-1.54 -72.04,-4.6 -25.78,-2.84 -53.66,-7.44 -83.17,-13.55zm0 -36.75c24.16,4.38 45.3,7.67 63.88,9.62 18.6,2.2 34.39,3.29 47.41,3.29 47.15,0 87.81,-17.29 121.97,-51.62 34.16,-34.33 51.12,-78.74 51.12,-133.19 0,-37.62 -8.14,-72.61 -24.39,-104.76 -16.27,-32.15 -39.5,-56.2 -69.24,-72.18 -29.74,-15.96 -63.66,-24.06 -101.76,-24.06 -23,0 -52.74,4.15 -88.98,12.25l0 360.65zm780.87 -378.14l0 343.81 203.53 0c52.74,0 87.81,-7.44 105.48,-22.3 23.69,-19.69 36.71,-54.25 39.49,-103.67l25.09 0 0 303.13 -25.09 0c-6.27,-42.43 -12.78,-69.76 -19.05,-81.8 -8.13,-14.87 -21.6,-26.67 -40.2,-35.2 -18.58,-8.53 -47.15,-12.91 -85.72,-12.91l-203.53 0 0 286.94c0,38.5 1.86,61.9 5.35,70.2 3.72,8.31 9.98,15.09 19.05,19.9 9.06,5.04 26.49,7.44 51.81,7.44l156.36 0c52.04,0 89.91,-3.5 113.61,-10.28 23.46,-6.78 46.23,-20.33 67.83,-40.46 28.12,-26.46 56.93,-66.48 86.43,-119.85l27.88 0 -79.69 217.83 -712.1 0 0 -23.62 32.76 0c21.84,0 42.52,-5.03 62.02,-14.87 14.65,-6.78 24.63,-17.06 29.74,-30.85 5.35,-13.78 7.91,-41.77 7.91,-84.19l0 -565.59c0,-55.11 -5.81,-89.01 -17.67,-101.71 -16.49,-17.05 -43.68,-25.58 -82,-25.58l-32.76 0 0 -23.62 712.32 0 9.76 191.58 -26.49 0c-9.52,-46.14 -19.98,-77.86 -31.6,-95.14 -11.6,-17.27 -28.81,-30.39 -51.34,-39.58 -18.12,-6.35 -50.19,-9.62 -95.96,-9.62l-253.24 0zm1502.95 822.78l-247.43 0 -313.88 -406.8c-22.54,0.87 -40.89,1.31 -55.06,1.31 -5.81,0 -12.09,-0.22 -18.6,-0.44 -6.73,-0.21 -13.47,-0.43 -20.67,-0.87l0 253.27c0,54.67 6.27,88.57 19.05,101.7 17.19,18.81 42.98,28.21 77.37,28.21l36.01 0 0 23.62 -395.9 0 0 -23.62 34.61 0c39.04,0 66.91,-12.03 83.64,-35.87 9.54,-13.12 14.17,-44.61 14.17,-94.04l0 -562.97c0,-54.68 -6.27,-88.58 -19.05,-101.7 -17.67,-18.81 -43.91,-28.21 -78.77,-28.21l-34.61 0 0 -23.62 336.42 0c98.27,0 170.53,6.78 217,20.11 46.69,13.57 86.19,38.5 118.49,74.58 32.52,36.09 48.79,79.18 48.79,129.26 0,53.57 -18.59,99.95 -55.53,139.32 -37.17,39.37 -94.32,67.14 -172.15,83.55l191.21 249.1c43.68,57.31 81.07,95.59 112.44,114.39 31.13,19.02 72.02,30.84 122.43,36.08l0 23.62zm-655.63 -447.48c8.59,0 16.03,0 22.3,0.22 6.27,0.21 11.38,0.43 15.33,0.43 87.13,0 152.87,-17.94 197.02,-53.8 44.37,-36.09 66.45,-81.8 66.45,-137.35 0,-54.24 -17.9,-98.43 -53.44,-132.55 -35.79,-33.9 -83.18,-50.95 -141.96,-50.95 -26.01,0 -61.33,3.93 -105.7,11.8l0 362.19zm1282.47 -442.24l0 300.51 -25.09 0c-8.13,-57.74 -22.76,-103.67 -43.9,-137.78 -21.16,-34.13 -51.36,-61.24 -90.62,-81.37 -39.03,-20.13 -79.45,-30.18 -121.27,-30.18 -47.39,0 -86.43,13.56 -117.33,40.69 -30.9,27.11 -46.46,58.16 -46.46,92.72 0,26.47 9.75,50.75 29.27,72.61 28.35,31.94 95.26,74.81 201.2,128.17 86.43,43.74 145.44,77.2 177.04,100.39 31.6,23.4 56,50.74 72.96,82.45 16.95,31.72 25.55,64.74 25.55,99.52 0,65.83 -27.19,122.47 -81.32,170.15 -54.36,47.68 -124.29,71.51 -209.56,71.51 -26.95,0 -52.04,-1.96 -75.74,-5.9 -14.17,-2.18 -43.22,-10.06 -87.59,-23.62 -44.14,-13.55 -72.26,-20.33 -84.1,-20.33 -11.38,0 -20.44,3.28 -26.95,9.62 -6.51,6.56 -11.39,19.9 -14.65,40.24l-25.09 0 0 -297.88 25.09 0c11.86,62.33 27.65,109.14 47.63,139.98 19.98,31.06 50.66,56.86 91.78,77.21 41.12,20.56 86.2,30.83 135.22,30.83 56.68,0 101.75,-14.22 134.51,-42.43 32.99,-28.43 49.5,-61.9 49.5,-100.39 0,-21.44 -6.28,-43.09 -18.6,-64.96 -12.54,-21.87 -31.82,-42.21 -58.07,-61.24 -17.67,-12.91 -66.22,-40.02 -145.44,-81.57 -79.22,-41.34 -135.68,-74.58 -169.13,-99.3 -33.46,-24.71 -59.02,-52.28 -76.21,-82.02 -17.43,-29.96 -26.02,-62.99 -26.02,-98.86 0,-62.33 25.56,-116.13 76.44,-161.18 50.88,-45.06 115.94,-67.59 194.46,-67.59 49.25,0 101.29,11.37 156.35,33.9 25.56,10.72 43.45,15.97 53.91,15.97 11.84,0 21.6,-3.28 29.04,-9.84 7.43,-6.78 13.48,-19.9 18.11,-40.03l25.09 0z"/>
  <g>
   <path class="fil1" d="M10534.13 2453.75c-0.04,-84.5 72.7,-153.03 162.46,-153.06 89.76,-0.03 162.56,68.44 162.6,152.94l-325.06 0.13zm0.92 2091.23l-0.92 -2091.23 325.06 -0.13 0.92 2091.23 -325.06 0.13zm325.06 -0.13c0.04,84.5 -72.7,153.03 -162.46,153.06 -89.76,0.03 -162.56,-68.44 -162.6,-152.94l325.06 -0.13z"/>
  </g>
  <g>
   <path class="fil2" d="M12286.39 2140.98c-0.04,-84.5 72.7,-153.03 162.46,-153.06 89.76,-0.03 162.56,68.44 162.6,152.94l-325.06 0.13zm0.92 2091.23l-0.92 -2091.23 325.06 -0.13 0.92 2091.23 -325.06 0.13zm325.06 -0.13c0.04,84.5 -72.7,153.03 -162.46,153.06 -89.76,0.03 -162.56,-68.44 -162.6,-152.94l325.06 -0.13z"/>
  </g>
  <g>
   <path class="fil3" d="M11969.93 4006.44c-64.37,-58.89 -65.84,-155.76 -3.28,-216.35 62.56,-60.59 165.46,-61.98 229.83,-3.09l-226.55 219.44zm366.64 335.43l-366.64 -335.43 226.55 -219.44 366.64 335.43 -226.55 219.44zm226.55 -219.44c64.37,58.89 65.84,155.76 3.28,216.35 -62.56,60.59 -165.46,61.98 -229.83,3.09l226.55 -219.44z"/>
  </g>
  <g>
   <path class="fil4" d="M10583.39 2563.41c-64.37,-58.89 -65.84,-155.76 -3.28,-216.35 62.56,-60.59 165.46,-61.98 229.83,-3.09l-226.55 219.44zm366.64 335.43l-366.64 -335.43 226.55 -219.44 366.64 335.43 -226.55 219.44zm226.55 -219.44c64.37,58.89 65.84,155.76 3.28,216.35 -62.56,60.59 -165.46,61.98 -229.83,3.09l226.55 -219.44z"/>
  </g>
  <g>
   <path class="fil5" d="M10581.71 4437.66l231.75 214.58c-62.94,60.24 -165.85,61.04 -229.85,1.79 -63.99,-59.25 -64.85,-156.13 -1.9,-216.37zm1207.81 -1155.94l231.75 214.58 -1207.81 1155.94 -231.75 -214.58 1207.81 -1155.94zm231.75 214.58l-231.75 -214.58c62.94,-60.24 165.85,-61.04 229.85,-1.79 63.99,59.25 64.85,156.13 1.9,216.37z"/>
  </g>
  <g>
   <path class="fil6" d="M11106.97 3206.8l231.72 214.61c-62.95,60.23 -165.86,61.02 -229.85,1.76 -63.98,-59.26 -64.82,-156.14 -1.87,-216.37zm1226.09 -1173.15l231.72 214.61 -1226.09 1173.15 -231.72 -214.61 1226.09 -1173.15zm231.72 214.61l-231.72 -214.61c62.95,-60.23 165.86,-61.02 229.85,-1.76 63.98,59.26 64.82,156.14 1.87,216.37z"/>
  </g>
  <path class="fil7" d="M8954.59 8137.96l69.31 0c27.93,0 49.39,3.07 64.33,9.3 15.02,6.22 26.86,15.83 35.51,28.74 8.73,12.83 13.07,27.2 13.07,42.89 0,14.76 -3.85,28.12 -11.43,40.19 -7.59,12.06 -18.78,21.82 -33.47,29.36 18.28,5.84 32.32,12.67 42.12,20.59 9.88,7.83 17.46,17.37 22.94,28.58 5.46,11.15 8.24,23.29 8.24,36.35 0,26.6 -10.29,49.11 -30.94,67.48 -20.67,18.36 -48.34,27.59 -83.11,27.59l-96.57 0 0 -331.07zm34.28 32.28l0 106.05 20.17 0c24.49,0 42.53,-2.15 54.04,-6.37 11.52,-4.3 20.65,-11.07 27.35,-20.28 6.78,-9.22 10.13,-19.53 10.13,-30.74 0,-15.14 -5.64,-27.06 -16.9,-35.74 -11.35,-8.61 -29.31,-12.91 -53.96,-12.91l-40.82 0zm0 139.26l0 127.27 43.68 0c25.71,0 44.57,-2.38 56.57,-7.07 12,-4.78 21.64,-12.22 28.9,-22.3 7.27,-10.07 10.94,-20.98 10.94,-32.66 0,-14.76 -5.15,-27.67 -15.36,-38.66 -10.19,-10.91 -24.24,-18.44 -42.12,-22.52 -12,-2.68 -32.9,-4.07 -62.7,-4.07l-19.92 0zm247.44 -171.53l35.26 0 0 199.96c0,23.67 0.5,38.5 1.48,44.34 1.71,13.07 5.8,23.98 12.17,32.75 6.36,8.75 16.16,16.13 29.39,22.06 13.22,5.91 26.53,8.91 40,8.91 11.59,0 22.77,-2.31 33.47,-6.99 10.61,-4.61 19.6,-11.07 26.78,-19.37 7.18,-8.24 12.41,-18.22 15.76,-29.9 2.37,-8.46 3.59,-25.67 3.59,-51.8l0 -199.96 35.26 0 0 199.81c0,29.59 -3.09,53.49 -9.22,71.7 -6.12,18.2 -18.45,34.11 -36.81,47.57 -18.45,13.53 -40.74,20.28 -66.95,20.28 -28.41,0 -52.74,-6.37 -72.98,-19.13 -20.33,-12.76 -33.88,-29.58 -40.73,-50.64 -4.33,-12.92 -6.45,-36.12 -6.45,-69.78l0 -199.81zm314.38 0l35.27 0 0 331.07 -35.27 0 0 -331.07zm115.59 0l35.27 0 0 298.8 135.68 0 0 32.28 -170.95 0 0 -331.07zm226.22 331.07l0 -331.07 72.98 0c52.58,0 90.79,3.99 114.54,11.92 34.13,11.3 60.83,30.74 80,58.56 19.19,27.74 28.82,60.78 28.82,99.21 0,33.2 -7.59,62.33 -22.85,87.54 -15.19,25.21 -35.02,43.88 -59.27,55.87 -24.33,11.99 -58.46,17.98 -102.29,17.98l-111.93 0zm33.8 -31.36l40.58 0c48.48,0 82.05,-2.84 100.81,-8.53 26.37,-8.15 47.19,-22.67 62.29,-43.72 15.11,-21.14 22.62,-46.88 22.62,-77.32 0,-31.89 -8.17,-59.24 -24.57,-81.84 -16.33,-22.68 -39.19,-38.2 -68.41,-46.57 -21.97,-6.31 -58.13,-9.46 -108.49,-9.46l-24.83 0 0 267.44zm325.81 -299.72l35.27 0 0 331.07 -35.27 0 0 -331.07zm116.09 331.07l0 -331.07 7.59 0 233.89 253.22 0 -253.22 35.27 0 0 331.07 -8.01 0 -232.5 -251 0 251 -36.24 0zm701.76 -275.59l-27.26 24.29c-19.68,-18.14 -41.23,-31.9 -64.66,-41.28 -23.43,-9.37 -46.28,-14.06 -68.57,-14.06 -27.69,0 -54.06,6.37 -79.03,19.13 -25.06,12.76 -44.49,30.06 -58.2,51.95 -13.8,21.82 -20.65,44.89 -20.65,69.25 0,24.9 7.1,48.57 21.3,71.09 14.21,22.43 33.88,40.04 58.94,52.87 25.15,12.83 52.58,19.29 82.46,19.29 36.25,0 66.95,-9.61 92,-28.74 25.07,-19.15 39.92,-44.04 44.57,-74.56l-112.17 0 0 -32.28 151.86 0c-0.33,51.11 -16.49,91.77 -48.5,121.81 -32.09,30.06 -74.85,45.11 -128.58,45.11 -65.15,0 -116.74,-20.82 -154.78,-62.56 -29.23,-32.13 -43.83,-69.24 -43.83,-111.43 0,-31.27 8.41,-60.48 25.15,-87.53 16.81,-26.98 39.83,-48.11 69.06,-63.33 29.31,-15.21 62.37,-22.81 99.28,-22.81 29.87,0 58.05,5.07 84.42,15.14 26.35,10.14 52.16,26.27 77.22,48.64zm223.29 -55.49l201.31 0 0 32.28 -166.06 0 0 103.74 164.58 0 0 32.29 -164.58 0 0 130.49 164.58 0 0 32.28 -199.84 0 0 -331.07zm243.77 0l41.15 0 84.09 128.57 84.4 -128.57 41.15 0 -105.07 159.93 111.93 171.15 -41.15 0 -91.36 -139.72 -91.83 139.72 -41.15 0 112.41 -171.15 -104.57 -159.93zm644.28 61.09l-27.75 20.06c-15.26,-18.75 -33.64,-32.97 -55.11,-42.65 -21.39,-9.69 -44.9,-14.52 -70.61,-14.52 -28,0 -53.96,6.37 -77.88,19.06 -23.92,12.69 -42.37,29.74 -55.52,51.11 -13.15,21.36 -19.76,45.49 -19.76,72.15 0,40.44 14.7,74.17 44.08,101.14 29.4,27.06 66.46,40.58 111.28,40.58 49.24,0 90.37,-18.14 123.52,-54.42l27.75 19.83c-17.54,20.99 -39.43,37.29 -65.63,48.73 -26.21,11.46 -55.52,17.21 -87.84,17.21 -61.55,0 -110.13,-19.28 -145.64,-57.87 -29.81,-32.5 -44.74,-71.85 -44.74,-117.88 0,-48.42 18.05,-89.22 54.12,-122.27 36.17,-33.13 81.4,-49.65 135.78,-49.65 32.81,0 62.44,6.06 88.89,18.22 26.45,12.21 48.17,29.27 65.07,51.17zm71.04 -61.09l201.31 0 0 32.28 -166.06 0 0 103.74 164.58 0 0 32.29 -164.58 0 0 130.49 164.58 0 0 32.28 -199.84 0 0 -331.07zm262.13 0l35.27 0 0 298.8 135.68 0 0 32.28 -170.95 0 0 -331.07zm226.22 0l35.27 0 0 298.8 135.68 0 0 32.28 -170.95 0 0 -331.07zm226.72 0l201.32 0 0 32.28 -166.06 0 0 103.74 164.58 0 0 32.29 -164.58 0 0 130.49 164.58 0 0 32.28 -199.84 0 0 -331.07zm262.63 331.07l0 -331.07 7.59 0 233.89 253.22 0 -253.22 35.28 0 0 331.07 -8.01 0 -232.51 -251 0 251 -36.24 0zm689.51 -269.98l-27.75 20.06c-15.27,-18.75 -33.64,-32.97 -55.11,-42.65 -21.39,-9.69 -44.9,-14.52 -70.61,-14.52 -28,0 -53.96,6.37 -77.89,19.06 -23.92,12.69 -42.37,29.74 -55.52,51.11 -13.15,21.36 -19.76,45.49 -19.76,72.15 0,40.44 14.7,74.17 44.09,101.14 29.4,27.06 66.46,40.58 111.28,40.58 49.24,0 90.37,-18.14 123.52,-54.42l27.75 19.83c-17.54,20.99 -39.44,37.29 -65.63,48.73 -26.21,11.46 -55.52,17.21 -87.84,17.21 -61.55,0 -110.13,-19.28 -145.64,-57.87 -29.81,-32.5 -44.74,-71.85 -44.74,-117.88 0,-48.42 18.04,-89.22 54.12,-122.27 36.17,-33.13 81.4,-49.65 135.77,-49.65 32.81,0 62.45,6.06 88.9,18.22 26.45,12.21 48.17,29.27 65.07,51.17zm71.04 -61.09l201.31 0 0 32.28 -166.06 0 0 103.74 164.58 0 0 32.29 -164.58 0 0 130.49 164.58 0 0 32.28 -199.84 0 0 -331.07z"/>
 </g>
</svg>
